<svg xmlns="http://www.w3.org/2000/svg" viewBox="0 0 345.35 136"><defs><style>.a{fill:#3f6672;}.b{fill:#9ebfcc;}.c{fill:#549e9e;}</style></defs><title>in2M-logo-v2.1</title><rect class="a" y="4.73" width="37.07" height="22.81"/><polygon class="a" points="0 89.78 0 90.84 0 135.81 37.07 135.81 37.07 101.67 37.07 100.61 37.07 39.1 0 39.1 0 89.78"/><path class="a" d="M274.7,151.91v-1.06A56.85,56.85,0,0,0,273.15,139l-13.85.08c0.57-4.4,1.47-11,2.44-17.6-5.3-3.67-11.89-5.54-19.8-5.54q-11.36,0-19.31,4.15c-5.3,2.77-10.51,7.33-15.64,13.77v-15.8H172.54v96.7h37.07V168.37q0-13.2,4.15-18.33a13.4,13.4,0,0,1,10.92-5.13c4.07,0,7.25,1.3,9.45,3.75s3.34,6.84,3.34,12.87v53.2h18.25a71.18,71.18,0,0,1,8-25.66,89.62,89.62,0,0,1,11-15.56V153.38a8.81,8.81,0,0,0,0-1.47" transform="translate(-128.3 -79)"/><path class="b" d="M320.81,139.86a14.16,14.16,0,0,0-1.22,1.06c-3,2.53-6.6,5.38-10.75,8.47-17.76,13.2-29.9,24.74-36.42,34.43A71.11,71.11,0,0,0,260.77,215H337l8.18-30.32-30.93,0c3.42-3.34,6.35-6.06,8.88-8.18s7.5-5.72,15-10.85c9-6.35,16-12.39,21-18a7.41,7.41,0,0,0,.73-0.82,56.47,56.47,0,0,0,4.24-5.62,42.74,42.74,0,0,0,7.17-23.3,35.45,35.45,0,0,0-6.27-20.69,36.56,36.56,0,0,0-17.11-13.69C340.69,80.55,330.51,79,317.47,79c-12.46,0-22.32,1.55-29.33,4.73a37.52,37.52,0,0,0-16.46,13.44c-3.91,5.87-6.52,28.27-8,38.7l37.15-.16c1.06-7.5,3-24,6-26.88a15.59,15.59,0,0,1,11.57-4.48,15.82,15.82,0,0,1,11.32,4.32,13.81,13.81,0,0,1,4.48,10.43c0,3.75-1.55,7.74-4.56,11.89A59.55,59.55,0,0,1,320.81,139.86Z" transform="translate(-128.3 -79)"/><path class="c" d="M395.37,116.63a8.09,8.09,0,1,0-8.09-8.08A8.09,8.09,0,0,0,395.37,116.63Z" transform="translate(-128.3 -79)"/><path class="c" d="M405.57,144.64c5.13,1.69,9.07,4.36,10.73,8.36h41.38l-5.11-19h-42.9Z" transform="translate(-128.3 -79)"/><path class="c" d="M459.39,160H416.77c-1.92,6-10.28,11-20.31,11a27.42,27.42,0,0,1-13.35-3.34l-35.67,28-5,18.31H381l6.36-20.89L396.13,214h27.35l7.65-24.47L437.7,214h35.95Z" transform="translate(-128.3 -79)"/><path class="c" d="M393.36,149c-4.93.83-8.58,3.73-8.58,7.19,0,4.12,5.12,7.46,11.44,7.46s11.44-3.34,11.44-7.46c0-3.45-3.62-6.33-8.51-7.18,4.17-11.19,11.85-31.92,12.74-35.07a17.16,17.16,0,0,0,.86-5.35,17.38,17.38,0,1,0-34.75,0,17.15,17.15,0,0,0,1.12,6.07C380.73,119.44,388.83,138.42,393.36,149Zm9.81,7.19c0,2.51-3.11,4.55-7,4.55s-7-2-7-4.55c0-2.12,2.26-3.9,5.3-4.39,1.15,2.68,1.9,4.39,1.9,4.39s0.64-1.7,1.62-4.35C401,152.34,403.18,154.08,403.18,156.16Zm-7.81-58.63a11.08,11.08,0,1,1-11.08,11.08A11.09,11.09,0,0,1,395.37,97.52Z" transform="translate(-128.3 -79)"/><path class="c" d="M386.85,144.85L382.32,134h-10.8A54.36,54.36,0,0,1,359,153l-8.62,32.05,27.5-21.84a10.37,10.37,0,0,1-2.14-6.17C375.73,151.7,380.24,147.17,386.85,144.85Z" transform="translate(-128.3 -79)"/></svg>