<svg xmlns="http://www.w3.org/2000/svg" viewBox="0 0 401.61 224.93"><defs><style>.a{fill:#3e4142;}.b{fill:#3f6672;}.c{fill:#9ebfcc;}.d{fill:#fff;}.e{fill:#549e9e;}</style></defs><title>in2Marketplace-logo</title><path class="a" d="M6.32,190.61h5.2v2.83h0.1a8.65,8.65,0,0,1,7-3.16,10,10,0,0,1,4.48,1,13.41,13.41,0,0,1,3.06,2.55,10.52,10.52,0,0,1,8.41-3.5,9.17,9.17,0,0,1,6.07,2.34q2.73,2.37,2.83,6.95v17.75h-5.2V201.4a5.74,5.74,0,0,0-1.49-4.28,5.2,5.2,0,0,0-3.85-1.49A5.29,5.29,0,0,0,29,197.12a5.62,5.62,0,0,0-1.54,4.28v15.92H22.3V201.4a5.74,5.74,0,0,0-1.49-4.28,5.29,5.29,0,0,0-3.87-1.49,5.2,5.2,0,0,0-3.85,1.49,5.57,5.57,0,0,0-1.57,4.28v15.92H6.32v-26.7Z" transform="translate(-6.32 -3.2)"/><path class="a" d="M63,215h-0.1a4.36,4.36,0,0,1-2.24,2,10.36,10.36,0,0,1-4.13.67,9.25,9.25,0,0,1-6.67-2.37,7.5,7.5,0,0,1-2.47-5.79,7.7,7.7,0,0,1,2.14-5.58q2.14-2.26,6.28-2.31H63v-2.82q0.05-3.54-5.31-3.44a9.13,9.13,0,0,0-3.07.41,3.78,3.78,0,0,0-1.84,1.65l-4.09-3.22q3-4,8.74-3.89a13.53,13.53,0,0,1,7.79,1.9q2.91,2,3,6.89v18.24H63V215Zm0-9H56.78q-4.55.1-4.49,3.22a2.89,2.89,0,0,0,1.17,2.32,5.35,5.35,0,0,0,3.72,1.06,8.89,8.89,0,0,0,4.62-.8q1.22-.85,1.22-3.86V206Z" transform="translate(-6.32 -3.2)"/><path class="a" d="M74.79,190.61H80v2.83h0.11a8.51,8.51,0,0,1,12.17-1.11L88.47,197A5.36,5.36,0,0,0,85,195.63,4.81,4.81,0,0,0,81.63,197,5.32,5.32,0,0,0,80,201.22v16.1H74.79v-26.7Z" transform="translate(-6.32 -3.2)"/><path class="a" d="M96.29,179.81h5.19v23.33h0.11l9.95-12.53h6.23L108.85,201,119,217.32h-6.53l-6.88-12.48-4.09,4.78v7.69H96.29V179.81Z" transform="translate(-6.32 -3.2)"/><path class="a" d="M125.91,206a6.36,6.36,0,0,0,1.8,4.89,5.88,5.88,0,0,0,4.39,1.7,7.66,7.66,0,0,0,5.66-2.6l3.76,3.32a12,12,0,0,1-9.32,4.32,13.09,13.09,0,0,1-4-.62,9.54,9.54,0,0,1-1.89-.9,9.1,9.1,0,0,1-1.82-1.21,10.62,10.62,0,0,1-2.67-4.17,16.91,16.91,0,0,1-1.12-6.69,19.15,19.15,0,0,1,1-6.59,11.53,11.53,0,0,1,2.49-4.22,9.25,9.25,0,0,1,3.46-2.26,10.8,10.8,0,0,1,3.74-.69,10.58,10.58,0,0,1,7.5,3,11.14,11.14,0,0,1,3.16,8.29V206H125.91Zm10.94-4.42a7,7,0,0,0-1.62-4.73,5.61,5.61,0,0,0-7.69,0,7.3,7.3,0,0,0-1.62,4.73h10.94Z" transform="translate(-6.32 -3.2)"/><path class="a" d="M149.65,182.48h5.19v8.13h3.79v4.11h-3.79V210.3q-0.05,2,1.84,2h1.94v5h-2.71a6,6,0,0,1-4.48-1.75,6.28,6.28,0,0,1-1.79-4.83v-16H147v-4.11h2.61v-8.13Z" transform="translate(-6.32 -3.2)"/><path class="a" d="M165,190.61h5.19v2.78a8.83,8.83,0,0,1,6.67-3.11q4.76,0.13,6.95,3.5a7.13,7.13,0,0,1,1.47,3.32,43.64,43.64,0,0,1,.37,6.89,42.83,42.83,0,0,1-.37,6.79,7.48,7.48,0,0,1-1.47,3.37,7.84,7.84,0,0,1-2.81,2.47,8.8,8.8,0,0,1-4.13,1,7.06,7.06,0,0,1-3.56-.9,11.27,11.27,0,0,1-3.11-2.25v13.64H165V190.61Zm10.3,21.66a5.16,5.16,0,0,0,2.92-.72,4.09,4.09,0,0,0,1.52-1.91,10.26,10.26,0,0,0,.67-2.68q0-1.45,0-3t0-3.12a9.62,9.62,0,0,0-.67-2.68,3.79,3.79,0,0,0-1.52-1.91,5.64,5.64,0,0,0-2.92-.65,4.59,4.59,0,0,0-2.77.75,4.37,4.37,0,0,0-1.57,2,10.12,10.12,0,0,0-.62,2.63q-0.15,1.5-.15,3a27,27,0,0,0,.15,2.84,10.22,10.22,0,0,0,.62,2.71,4.36,4.36,0,0,0,1.57,2A4.47,4.47,0,0,0,175.27,212.28Z" transform="translate(-6.32 -3.2)"/><path class="a" d="M191.33,179.81h5.19v30.64a1.67,1.67,0,0,0,1.95,1.83h1.8v5H198a7.3,7.3,0,0,1-4.68-1.46q-1.94-1.48-1.94-5V179.81Z" transform="translate(-6.32 -3.2)"/><path class="a" d="M219.74,215h-0.1a4.36,4.36,0,0,1-2.24,2,10.36,10.36,0,0,1-4.13.67,9.25,9.25,0,0,1-6.67-2.37,7.5,7.5,0,0,1-2.47-5.79,7.7,7.7,0,0,1,2.14-5.58q2.14-2.26,6.28-2.31h7.2v-2.82q0.05-3.54-5.31-3.44a9.13,9.13,0,0,0-3.07.41,3.78,3.78,0,0,0-1.84,1.65l-4.09-3.22q3-4,8.74-3.89a13.53,13.53,0,0,1,7.79,1.9q2.91,2,3,6.89v18.24h-5.19V215Zm0-9H213.5q-4.55.1-4.49,3.22a2.89,2.89,0,0,0,1.17,2.32,5.35,5.35,0,0,0,3.72,1.06,8.89,8.89,0,0,0,4.62-.8q1.22-.85,1.22-3.86V206Z" transform="translate(-6.32 -3.2)"/><path class="a" d="M250.29,213a14,14,0,0,1-4,3.25,10.93,10.93,0,0,1-5.31,1.36,11.44,11.44,0,0,1-8-3.22q-3.58-3.22-3.68-10.42,0.1-7.28,3.69-10.55a11.26,11.26,0,0,1,8-3.16,11.47,11.47,0,0,1,5.3,1.28,13.29,13.29,0,0,1,4,3.36l-3.84,3.52a6.45,6.45,0,0,0-5.26-2.81q-6.63-.1-6.73,8.36,0.1,8.42,6.73,8.29a6.3,6.3,0,0,0,5.26-2.79Z" transform="translate(-6.32 -3.2)"/><path class="a" d="M258.55,206a6.36,6.36,0,0,0,1.8,4.89,5.88,5.88,0,0,0,4.39,1.7,7.66,7.66,0,0,0,5.66-2.6l3.76,3.32a12,12,0,0,1-9.32,4.32,13.09,13.09,0,0,1-4-.62,9.54,9.54,0,0,1-1.89-.9,9.13,9.13,0,0,1-1.82-1.21,10.62,10.62,0,0,1-2.67-4.17,16.89,16.89,0,0,1-1.12-6.69,19.15,19.15,0,0,1,1-6.59,11.53,11.53,0,0,1,2.49-4.22,9.25,9.25,0,0,1,3.46-2.26,10.8,10.8,0,0,1,3.74-.69,10.58,10.58,0,0,1,7.5,3,11.14,11.14,0,0,1,3.16,8.29V206H258.55Zm10.94-4.42a7,7,0,0,0-1.62-4.73,5.61,5.61,0,0,0-7.69,0,7.31,7.31,0,0,0-1.62,4.73h10.94Z" transform="translate(-6.32 -3.2)"/><path class="a" d="M282.13,212h5.19v5.35h-5.19V212Z" transform="translate(-6.32 -3.2)"/><path class="a" d="M313.65,213a14,14,0,0,1-4,3.25,10.93,10.93,0,0,1-5.31,1.36,11.43,11.43,0,0,1-8-3.22q-3.58-3.22-3.68-10.42,0.1-7.28,3.69-10.55a11.26,11.26,0,0,1,8-3.16,11.46,11.46,0,0,1,5.3,1.28,13.29,13.29,0,0,1,4,3.36l-3.84,3.52a6.45,6.45,0,0,0-5.26-2.81q-6.63-.1-6.73,8.36,0.1,8.42,6.73,8.29a6.3,6.3,0,0,0,5.26-2.79Z" transform="translate(-6.32 -3.2)"/><path class="a" d="M316.54,203.94a24.09,24.09,0,0,1,.67-6.49,9.46,9.46,0,0,1,2.14-3.74,9.83,9.83,0,0,1,3-2.38,10.81,10.81,0,0,1,4.86-1,11,11,0,0,1,5,1.05,9.34,9.34,0,0,1,2.89,2.39,8.47,8.47,0,0,1,2.19,3.73,25.94,25.94,0,0,1,.62,6.48,25.19,25.19,0,0,1-.62,6.43,9.23,9.23,0,0,1-2.19,3.83,8.17,8.17,0,0,1-1.22,1.16,5.63,5.63,0,0,1-1.67,1.11,10.1,10.1,0,0,1-5,1.16,10.63,10.63,0,0,1-7.85-3.42,10.36,10.36,0,0,1-2.14-3.83A23.41,23.41,0,0,1,316.54,203.94ZM332.67,204a24.83,24.83,0,0,0-.25-4.18,5,5,0,0,0-1-2.22,3.86,3.86,0,0,0-1.7-1.42,5.48,5.48,0,0,0-2.5-.54,5.55,5.55,0,0,0-2.45.54,4.65,4.65,0,0,0-1.75,1.42,6.32,6.32,0,0,0-1,2.22,20.43,20.43,0,0,0-.3,4.13A19.85,19.85,0,0,0,322,208a6.83,6.83,0,0,0,1,2.32,6.35,6.35,0,0,0,1.75,1.37,5.35,5.35,0,0,0,2.45.57,5.27,5.27,0,0,0,2.5-.57,4.93,4.93,0,0,0,1.7-1.37,5.4,5.4,0,0,0,1-2.32A23.3,23.3,0,0,0,332.67,204Z" transform="translate(-6.32 -3.2)"/><path class="a" d="M342.14,190.61h5.2v2.83h0.1a8.65,8.65,0,0,1,7-3.16,10,10,0,0,1,4.48,1,13.41,13.41,0,0,1,3.06,2.55,10.53,10.53,0,0,1,8.41-3.5,9.16,9.16,0,0,1,6.07,2.34q2.73,2.37,2.83,6.95v17.75h-5.2V201.4a5.74,5.74,0,0,0-1.49-4.28,5.21,5.21,0,0,0-3.85-1.49,5.29,5.29,0,0,0-3.87,1.49,5.63,5.63,0,0,0-1.54,4.28v15.92h-5.19V201.4a5.74,5.74,0,0,0-1.49-4.28,5.29,5.29,0,0,0-3.87-1.49,5.2,5.2,0,0,0-3.85,1.49,5.57,5.57,0,0,0-1.57,4.28v15.92h-5.2v-26.7Z" transform="translate(-6.32 -3.2)"/><rect class="b" y="5.8" width="45.5" height="28"/><polygon class="b" points="0 110.2 0 111.5 0 166.7 45.5 166.7 45.5 124.8 45.5 123.5 45.5 48 0 48 0 110.2"/><path class="b" d="M186,92.7V91.4a69.78,69.78,0,0,0-1.9-14.5l-17,.1c0.7-5.4,1.8-13.5,3-21.6-6.5-4.5-14.6-6.8-24.3-6.8q-14,0-23.7,5.1c-6.5,3.4-12.9,9-19.2,16.9V51.2H60.62V169.9h45.5v-57q0-16.2,5.1-22.5a16.45,16.45,0,0,1,13.4-6.3c5,0,8.9,1.6,11.6,4.6s4.1,8.4,4.1,15.8v65.3h22.4a87.37,87.37,0,0,1,9.8-31.5A110,110,0,0,1,186,119.2V94.5a10.82,10.82,0,0,0,0-1.8" transform="translate(-6.32 -3.2)"/><path class="c" d="M234.62,132.8c4.2-4.1,7.8-7.4,10.9-10s9.2-7,18.4-13.3c11.1-7.8,19.7-15.2,25.8-22.1a9,9,0,0,0,.9-1,69.28,69.28,0,0,0,5.2-6.9c5.8-9.1,8.8-18.6,8.8-28.6a43.51,43.51,0,0,0-7.7-25.4,44.88,44.88,0,0,0-21-16.8c-8.9-3.6-21.4-5.5-37.4-5.5-15.3,0-27.4,1.9-36,5.8a46.06,46.06,0,0,0-20.2,16.5c-4.8,7.2-8,34.7-9.8,47.5l45.6-.2c1.3-9.2,3.7-29.4,7.4-33s8.4-5.5,14.2-5.5a19.42,19.42,0,0,1,13.9,5.3,17,17,0,0,1,5.5,12.8c0,4.6-1.9,9.5-5.6,14.6-2.1,2.9-5.8,6.5-10.9,10.9a17.38,17.38,0,0,0-1.5,1.3c-3.7,3.1-8.1,6.6-13.2,10.4q-32.7,24.3-44.7,42.1a86.64,86.64,0,0,0-14.3,38.1h136.6V132.7l-70.9.1h0Z" transform="translate(-6.32 -3.2)"/><path class="d" d="M310.56,171.41c-4,0-5.79-3.93-6.27-6.32l-17.12-60.87a2.13,2.13,0,0,1,2.05-2.71L397,101.39a2.13,2.13,0,0,1,2.05,2.72l-17.23,60.72c-1.4,6.13-5.49,6.45-6.3,6.45h-0.12l-64.8.14h0Zm-28-70.06a2.13,2.13,0,0,1-2.13-2.13V86.11A2.13,2.13,0,0,1,282.56,84h13.91l39-30.62a9.61,9.61,0,0,1-.08-1.23c0-4.79,3.59-8.69,8-8.69s8,3.9,8,8.69a6.49,6.49,0,0,1-.09,1.07L389.68,84h14a2.13,2.13,0,0,1,2.13,2.13v13.1a2.13,2.13,0,0,1-2.13,2.13H282.56ZM374.62,84L344.44,60.68a4.88,4.88,0,0,1-1.08.13,7.44,7.44,0,0,1-.85,0L311.65,84h63Z" transform="translate(-6.32 -3.2)"/><path class="d" d="M343.36,45.57c3.23,0,5.86,2.93,5.86,6.55a7.05,7.05,0,0,1-.34,1.89l40.06,32.09h14.73v13.1H282.56V86.11h14.65l40.6-31.89A6.18,6.18,0,0,0,342,58.49L305.26,86.11h75.61l-36-27.78a5.08,5.08,0,0,1-1.53.35,5.28,5.28,0,0,1-1.39-.18l1.39-1-4.28-4.23-1.28,1a7.24,7.24,0,0,1-.31-2.09c0-3.62,2.63-6.55,5.86-6.55m53.6,58L379.71,164.3c-1,4.61-3.7,4.84-4.23,4.84H375.4l-64.83.14c-3.31,0-4.19-4.68-4.19-4.68l-17.14-61L397,103.53M364.6,134.15h3.91V112.31H364.6v21.84m-7.81,0h3.91V112.31h-3.91v21.84m-7.81,0h3.91V112.31H349v21.84m-7.81,0h3.91V112.31h-3.91v21.84m-7.82,0h3.91V112.31h-3.91v21.84m-7.81,0h3.9V112.31h-3.9v21.84m-7.82,0h3.91V112.31h-3.91v21.84m46.89,26.21h3.91V138.52H364.6v21.84m-7.81,0h3.91V138.52h-3.91v21.84m-7.81,0h3.91V138.52H349v21.84m-7.81,0h3.91V138.52h-3.91v21.84m-7.82,0h3.91V138.52h-3.91v21.84m-7.81,0h3.9V138.52h-3.9v21.84m-7.82,0h3.91V138.52h-3.91v21.84M343.36,41.3c-5.58,0-10.13,4.85-10.13,10.82q0,0.13,0,.26l-37.5,29.46H282.56a4.27,4.27,0,0,0-4.27,4.27v13.1a4.27,4.27,0,0,0,4.27,4.27H285a4.26,4.26,0,0,0,.16,1.32l17.09,60.79c1.12,5.49,5,8,8.35,8l64.74-.14h0.19c3,0,7-2.11,8.36-8l17.21-60.66a4.26,4.26,0,0,0,.16-1.21h2.44a4.27,4.27,0,0,0,4.27-4.27V86.11a4.27,4.27,0,0,0-4.27-4.27H390.43l-37-29.6s0-.08,0-0.12c0-6-4.54-10.82-10.13-10.82h0Zm0,21.64,0.5,0,24.51,18.92H318l25.12-18.9h0.2ZM397,107.79h0Z" transform="translate(-6.32 -3.2)"/><path class="e" d="M348.87,54l40.06,32.09h14.73v13.1H282.56V86.11h14.65l41.88-32.9,4.28,4.23-38.1,28.66h75.61l-36-27.78ZM379.71,164.3c-1.14,5.12-4.32,4.83-4.32,4.83l-64.83.14c-3.31,0-4.19-4.68-4.19-4.68l-17.14-61L397,103.53,379.71,164.3h0Zm-58.09-52h-3.91v21.84h3.91V112.31Zm0,26.21h-3.91v21.84h3.91V138.52Zm7.81-26.21h-3.9v21.84h3.9V112.31Zm0,26.21h-3.9v21.84h3.9V138.52Zm7.81-26.21h-3.91v21.84h3.91V112.31Zm0,26.21h-3.91v21.84h3.91V138.52Zm7.82-26.21h-3.91v21.84h3.91V112.31Zm0,26.21h-3.91v21.84h3.91V138.52Zm7.81-26.21H349v21.84h3.91V112.31Zm0,26.21H349v21.84h3.91V138.52Zm7.81-26.21h-3.91v21.84h3.91V112.31Zm0,26.21h-3.91v21.84h3.91V138.52Zm7.81-26.21H364.6v21.84h3.91V112.31Zm0,26.21H364.6v21.84h3.91V138.52Z" transform="translate(-6.32 -3.2)"/><circle class="e" cx="336.87" cy="53.1" r="9.15"/></svg>