<svg xmlns="http://www.w3.org/2000/svg" viewBox="0 0 409.37 171.1"><defs><style>.a{fill:#3f6672;}.b{fill:#9ebfcc;}.c{fill:#fff;}.d{fill:#549e9e;}</style></defs><title>in2Marketplace-icon</title><rect class="a" y="5.8" width="45.5" height="28"/><polygon class="a" points="0 110.2 0 111.5 0 166.7 45.5 166.7 45.5 124.8 45.5 123.5 45.5 48 0 48 0 110.2"/><path class="a" d="M183.88,93.53v-1.3a69.78,69.78,0,0,0-1.9-14.5l-17,.1c0.7-5.4,1.8-13.5,3-21.6-6.5-4.5-14.6-6.8-24.3-6.8q-14,0-23.7,5.1c-6.5,3.4-12.9,9-19.2,16.9V52H58.48v118.7H104v-57q0-16.2,5.1-22.5a16.45,16.45,0,0,1,13.4-6.3c5,0,8.9,1.6,11.6,4.6s4.1,8.4,4.1,15.8v65.3h22.4a87.37,87.37,0,0,1,9.8-31.5,110,110,0,0,1,13.5-19.1V95.33a10.82,10.82,0,0,0,0-1.8" transform="translate(-4.18 -4.03)"/><path class="b" d="M232.48,133.63c4.2-4.1,7.8-7.4,10.9-10s9.2-7,18.4-13.3c11.1-7.8,19.7-15.2,25.8-22.1a9,9,0,0,0,.9-1,69.28,69.28,0,0,0,5.2-6.9c5.8-9.1,8.8-18.6,8.8-28.6a43.51,43.51,0,0,0-7.7-25.4,44.88,44.88,0,0,0-21-16.8c-8.9-3.6-21.4-5.5-37.4-5.5-15.3,0-27.4,1.9-36,5.8a46.06,46.06,0,0,0-20.2,16.5c-4.8,7.2-8,34.7-9.8,47.5l45.6-.2c1.3-9.2,3.7-29.4,7.4-33s8.4-5.5,14.2-5.5a19.42,19.42,0,0,1,13.9,5.3,17,17,0,0,1,5.5,12.8c0,4.6-1.9,9.5-5.6,14.6-2.1,2.9-5.8,6.5-10.9,10.9A17.38,17.38,0,0,0,239,80c-3.7,3.1-8.1,6.6-13.2,10.4q-32.7,24.3-44.7,42.1a86.64,86.64,0,0,0-14.3,38.1h136.6v-37.1l-70.9.1h0Z" transform="translate(-4.18 -4.03)"/><path class="c" d="M310,172.62c-4.34,0-6.35-4.27-6.88-6.88l-18.1-64.38a2.51,2.51,0,0,1,1.16-2.85h-5.8A2.51,2.51,0,0,1,277.9,96V82.13a2.51,2.51,0,0,1,2.51-2.51H295l41-32.24a10.35,10.35,0,0,1-.07-1.2c0-5.21,3.91-9.44,8.71-9.44s8.71,4.24,8.71,9.44a7,7,0,0,1-.08,1l40.46,32.41h14.7A2.51,2.51,0,0,1,411,82.13V96a2.51,2.51,0,0,1-2.51,2.51h-5.65a2.51,2.51,0,0,1,1,2.74l-18.22,64.22c-1.52,6.67-6,7-6.91,7h-0.13l-68.54.15h0Zm67-93L345.81,55.51a5.41,5.41,0,0,1-1.08.11,8.09,8.09,0,0,1-.83,0l-31.95,24H377Z" transform="translate(-4.18 -4.03)"/><path class="c" d="M344.73,39.25c3.42,0,6.2,3.1,6.2,6.93a7.46,7.46,0,0,1-.36,2l42.38,33.95h15.58V96H280.41V82.13h15.5L338.85,48.4a6.54,6.54,0,0,0,4.41,4.52L304.43,82.13h80L346.34,52.75a5.37,5.37,0,0,1-1.62.36,5.58,5.58,0,0,1-1.47-.2l1.47-1.11-4.53-4.48-1.35,1.06a7.66,7.66,0,0,1-.32-2.22c0-3.83,2.78-6.93,6.2-6.93m56.7,61.31-18.24,64.28c-1.09,4.87-3.92,5.12-4.47,5.12h-0.09l-68.58.15c-3.5,0-4.43-5-4.43-5l-18.13-64.47,114-.12M367.2,133h4.13v-23.1H367.2V133m-8.27,0h4.13v-23.1h-4.13V133m-8.27,0h4.13v-23.1h-4.13V133m-8.27,0h4.13v-23.1H342.4V133m-8.27,0h4.13v-23.1h-4.13V133m-8.26,0H330v-23.1h-4.13V133m-8.27,0h4.13v-23.1H317.6V133m49.6,27.72h4.13v-23.1H367.2v23.1m-8.27,0h4.13v-23.1h-4.13v23.1m-8.27,0h4.13v-23.1h-4.13v23.1m-8.27,0h4.13v-23.1H342.4v23.1m-8.27,0h4.13v-23.1h-4.13v23.1m-8.26,0H330v-23.1h-4.13v23.1m-8.27,0h4.13v-23.1H317.6v23.1M344.73,34.23c-6.19,0-11.22,5.36-11.22,12v0l-39.33,30.9H280.41a5,5,0,0,0-5,5V96a5,5,0,0,0,5,5h2a5,5,0,0,0,.18,1l18.09,64.32a14.74,14.74,0,0,0,1.37,3.67,9,9,0,0,0,7.95,5.11l68.47-.15h0.2c3.37,0,7.81-2.33,9.34-8.9l18.21-64.16a5,5,0,0,0,.17-0.91h2.09a5,5,0,0,0,5-5V82.13a5,5,0,0,0-5-5H394.7l-38.75-31c-0.06-6.54-5.07-11.83-11.22-11.83h0Zm0,23.91h0.36l24.59,19H319.47l25.21-19h0Zm56.7,47.44h0Z" transform="translate(-4.18 -4.03)"/><path class="d" d="M350.56,48.18l42.38,33.95h15.58V96H280.41V82.13h15.5l44.3-34.8,4.53,4.48-40.3,30.32h80L346.34,52.75Zm32.63,116.66c-1.21,5.41-4.57,5.11-4.57,5.11l-68.58.15c-3.5,0-4.43-5-4.43-5l-18.13-64.47,114-.12-18.24,64.28h0Zm-61.45-55H317.6V133h4.13v-23.1Zm0,27.72H317.6v23.1h4.13v-23.1ZM330,109.85h-4.13V133H330v-23.1Zm0,27.72h-4.13v23.1H330v-23.1Zm8.27-27.72h-4.13V133h4.13v-23.1Zm0,27.72h-4.13v23.1h4.13v-23.1Zm8.27-27.72H342.4V133h4.13v-23.1Zm0,27.72H342.4v23.1h4.13v-23.1Zm8.27-27.72h-4.13V133h4.13v-23.1Zm0,27.72h-4.13v23.1h4.13v-23.1Zm8.27-27.72h-4.13V133h4.13v-23.1Zm0,27.72h-4.13v23.1h4.13v-23.1Zm8.27-27.72H367.2V133h4.13v-23.1Zm0,27.72H367.2v23.1h4.13v-23.1Z" transform="translate(-4.18 -4.03)"/><circle class="d" cx="340.37" cy="46.57" r="9.68"/></svg>