<svg xmlns="http://www.w3.org/2000/svg" xmlns:xlink="http://www.w3.org/1999/xlink" viewBox="-15658 -7272 175 175"><defs><style>.a{fill:#b2b0b0;}.b{clip-path:url(#a);}.c{fill:#959494;}</style><clipPath id="a"><rect class="a" width="175" height="175" rx="100" ry="100" transform="translate(100 947)"/></clipPath></defs><g transform="translate(-15758 -8219)"><rect class="a" width="175" height="175" rx="100" ry="100" transform="translate(100 947)"/><g class="b"><path class="c" d="M156.578,137.349a78.871,78.871,0,0,1-.458,9.156H0V131.855a21.627,21.627,0,0,1,9.157-12.361,54.484,54.484,0,0,1,16.482-7.783,183.044,183.044,0,0,0,18.313-6.867c6.41-2.747,10.988-5.952,14.193-9.614a8.757,8.757,0,0,0,2.289-5.494A41.489,41.489,0,0,0,58.6,79.2l-1.373-5.494a44.608,44.608,0,0,0-2.289-5.036A42.354,42.354,0,0,1,52.65,64.1c-1.373-3.2-3.2-10.072-5.036-19.229A88.911,88.911,0,0,1,46.7,33.879c0-10.072,2.747-18.313,7.783-24.723C59.976,3.2,67.3,0,77.373,0s17.855,3.2,23.349,9.157,7.783,14.193,7.783,24.723a106.212,106.212,0,0,1-.916,10.988c-1.374,8.7-2.747,15.108-4.578,19.229a42.356,42.356,0,0,1-2.289,4.578,24.536,24.536,0,0,0-2.289,5.036A38.168,38.168,0,0,0,96.6,79.2c-.916,5.036-1.831,8.7-1.831,10.53a9.512,9.512,0,0,0,2.289,5.494c3.2,3.663,7.783,6.867,14.193,9.614a183.041,183.041,0,0,0,18.313,6.867,60.147,60.147,0,0,1,16.482,7.783c5.036,3.2,8.241,7.783,9.157,12.361C156.578,132.771,156.578,134.6,156.578,137.349Z" transform="translate(111.426 983.586)"/></g></g></svg>