<svg xmlns="http://www.w3.org/2000/svg" viewBox="0 0 29.7 32"><defs><style>.a{fill:#444;}</style></defs><title>icon-calendar-1</title><path class="a" d="M1219.3,1378.7h5.1v-5.1h-5.1v5.1Zm6.3,0h5.7v-5.1h-5.7v5.1Zm-6.3-6.3h5.1v-5.7h-5.1v5.7Zm6.3,0h5.7v-5.7h-5.7v5.7Zm-6.3-6.8h5.1v-5.1h-5.1v5.1Zm13.1,13.1h5.7v-5.1h-5.7v5.1Zm-6.8-13.1h5.7v-5.1h-5.7v5.1Zm13.7,13.1h5.1v-5.1h-5.1v5.1Zm-6.9-6.3h5.7v-5.7h-5.7v5.7Zm-6.3-15.4v-5.1a0.71,0.71,0,0,0-.6-0.6h-1.1a0.71,0.71,0,0,0-.6.6v5.1a0.71,0.71,0,0,0,.6.6h1.1a0.52,0.52,0,0,0,.4-0.2A0.34,0.34,0,0,0,1226.1,1357Zm13.2,15.4h5.1v-5.7h-5.1v5.7Zm-6.9-6.8h5.7v-5.1h-5.7v5.1Zm6.9,0h5.1v-5.1h-5.1v5.1Zm0.6-8.6v-5.1a0.71,0.71,0,0,0-.6-0.6h-1.1a0.71,0.71,0,0,0-.6.6v5.1a0.71,0.71,0,0,0,.6.6h1.1A0.71,0.71,0,0,0,1239.9,1357Zm6.8-1.1v22.9a2,2,0,0,1-.7,1.6,2.13,2.13,0,0,1-1.6.7h-25.1a2,2,0,0,1-1.6-.7,2.13,2.13,0,0,1-.7-1.6v-22.9a2,2,0,0,1,.7-1.6,2.57,2.57,0,0,1,1.6-.7h2.3v-1.7a2.73,2.73,0,0,1,2.8-2.8h1.1a2.73,2.73,0,0,1,2.8,2.8v1.7h6.9v-1.7a2.73,2.73,0,0,1,2.8-2.8h1.1a2.73,2.73,0,0,1,2.8,2.8v1.7h2.3a2,2,0,0,1,1.6.7A1.62,1.62,0,0,1,1246.7,1355.9Z" transform="translate(-1217 -1349.1)"/></svg>